<?xml version="1.0" encoding="UTF-8"?>
<svg id="Layer_1" data-name="Layer 1" xmlns="http://www.w3.org/2000/svg" viewBox="0 0 24 23.63">
  <path d="M12,0C5.373,0,0,5.373,0,12c0,5.623,3.872,10.328,9.092,11.63-.056-.162-.092-.35-.092-.583v-2.051h-1.508c-.821,0-1.551-.353-1.905-1.009-.393-.729-.461-1.844-1.435-2.526-.289-.227-.069-.486,.264-.451,.615,.174,1.125,.596,1.605,1.222,.478,.627,.703,.769,1.596,.769,.433,0,1.081-.025,1.691-.121,.328-.833,.895-1.6,1.588-1.962-3.996-.411-5.903-2.399-5.903-5.098,0-1.162,.495-2.286,1.336-3.233-.276-.94-.623-2.857,.106-3.587,1.798,0,2.885,1.166,3.146,1.481,.896-.307,1.88-.481,2.914-.481,1.036,0,2.024,.174,2.922,.483,.258-.313,1.346-1.483,3.148-1.483,.732,.731,.381,2.656,.102,3.594,.836,.945,1.328,2.066,1.328,3.226,0,2.697-1.904,4.684-5.894,5.097,1.098,.573,1.899,2.183,1.899,3.396v2.734c0,.104-.023,.179-.035,.268,4.676-1.639,8.035-6.079,8.035-11.315C24,5.373,18.627,0,12,0Z"/>
</svg>