<?xml version="1.0" encoding="UTF-8"?>
<svg id="Layer_1" data-name="Layer 1" xmlns="http://www.w3.org/2000/svg" viewBox="0 0 40 40">
  <defs>
    <style>
      .cls-1 {
        fill: #fbc02d;
      }

      .cls-2 {
        fill: #e53935;
      }

      .cls-3 {
        fill: #4caf50;
      }

      .cls-4 {
        fill: #1565c0;
      }
    </style>
  </defs>
  <path class="cls-1" d="M39.611,16.083h-1.611v-.083H20v8h11.303c-1.649,4.657-6.08,8-11.303,8-6.627,0-12-5.373-12-12s5.373-12,12-12c3.059,0,5.842,1.154,7.961,3.039l5.657-5.657C30.046,2.053,25.268,0,20,0,8.955,0,0,8.955,0,20s8.955,20,20,20,20-8.955,20-20c0-1.341-.138-2.65-.389-3.917Z"/>
  <path class="cls-2" d="M2.306,10.691l6.571,4.819c1.778-4.402,6.084-7.51,11.123-7.51,3.059,0,5.842,1.154,7.961,3.039l5.657-5.657C30.046,2.053,25.268,0,20,0,12.318,0,5.656,4.337,2.306,10.691Z"/>
  <path class="cls-3" d="M20,40c5.166,0,9.86-1.977,13.409-5.192l-6.19-5.238c-2.008,1.521-4.504,2.43-7.219,2.43-5.202,0-9.619-3.317-11.283-7.946l-6.522,5.025c3.31,6.477,10.032,10.921,17.805,10.921Z"/>
  <path class="cls-4" d="M39.611,16.083l-.016-.083H20v8h11.303c-.792,2.237-2.231,4.166-4.087,5.571l.003-.002,6.19,5.238c-.438,.398,6.591-4.807,6.591-14.807,0-1.341-.138-2.65-.389-3.917Z"/>
</svg>